G75*
%MOIN*%
%OFA0B0*%
%FSLAX25Y25*%
%IPPOS*%
%LPD*%
%AMOC8*
5,1,8,0,0,1.08239X$1,22.5*
%
%ADD10OC8,0.05200*%
%ADD11C,0.05200*%
%ADD12C,0.05600*%
%ADD13OC8,0.05600*%
%ADD14C,0.07400*%
%ADD15C,0.07000*%
%ADD16C,0.02400*%
%ADD17C,0.01969*%
%ADD18R,0.03962X0.03962*%
D10*
X0108913Y0150252D03*
X0118913Y0150252D03*
X0070882Y0198441D03*
X0070882Y0208441D03*
D11*
X0068282Y0181315D02*
X0073482Y0181315D01*
X0073482Y0171315D02*
X0068282Y0171315D01*
D12*
X0095488Y0150606D03*
X0095488Y0138795D03*
X0056945Y0095567D03*
D13*
X0056945Y0085567D03*
X0056945Y0075567D03*
X0056945Y0065567D03*
X0056945Y0055567D03*
X0056945Y0045567D03*
X0056945Y0035567D03*
X0056945Y0025567D03*
X0056945Y0015567D03*
X0046945Y0015567D03*
X0046945Y0025567D03*
X0046945Y0035567D03*
X0046945Y0045567D03*
X0046945Y0055567D03*
X0046945Y0065567D03*
X0046945Y0075567D03*
X0046945Y0085567D03*
X0046945Y0095567D03*
D14*
X0120843Y0102260D03*
X0135094Y0102575D03*
X0135094Y0072575D03*
X0126866Y0053815D03*
X0120843Y0072260D03*
X0126866Y0023815D03*
D15*
X0086508Y0025567D02*
X0079508Y0025567D01*
X0079508Y0035567D02*
X0086508Y0035567D01*
X0086508Y0045567D02*
X0079508Y0045567D01*
X0079508Y0055567D02*
X0086508Y0055567D01*
X0086508Y0065567D02*
X0079508Y0065567D01*
X0079508Y0075567D02*
X0086508Y0075567D01*
X0086508Y0085567D02*
X0079508Y0085567D01*
X0079508Y0095567D02*
X0086508Y0095567D01*
D16*
X0016748Y0056118D02*
X0016748Y0137811D01*
X0052181Y0137811D01*
X0052181Y0189976D01*
X0078756Y0189976D01*
X0081709Y0187024D01*
X0081709Y0176197D01*
X0076787Y0171276D01*
X0070882Y0171276D01*
X0067929Y0182102D02*
X0060055Y0182102D01*
X0060055Y0130921D01*
X0024622Y0130921D01*
X0024622Y0064976D01*
X0046276Y0064976D01*
X0047260Y0065961D01*
X0044307Y0075803D02*
X0030528Y0075803D01*
X0030528Y0122063D01*
X0091551Y0122063D01*
X0104346Y0109268D01*
X0104346Y0071866D01*
X0119110Y0071866D01*
X0126984Y0079740D02*
X0126984Y0052181D01*
X0134858Y0040370D02*
X0134858Y0071866D01*
X0126984Y0079740D02*
X0111236Y0095488D01*
X0111236Y0111236D01*
X0091551Y0130921D01*
X0067929Y0130921D01*
X0067929Y0150606D01*
X0091551Y0174228D01*
X0091551Y0189976D01*
X0091551Y0197850D01*
X0071866Y0197850D01*
X0071866Y0209661D02*
X0098441Y0209661D01*
X0098441Y0196866D01*
X0098441Y0159465D01*
X0108283Y0159465D01*
X0143185Y0159465D01*
X0145685Y0156965D01*
X0145685Y0127969D01*
X0145685Y0025606D01*
X0134858Y0014780D01*
X0057102Y0014780D01*
X0057102Y0024622D02*
X0080724Y0024622D01*
X0080724Y0035449D02*
X0056118Y0035449D01*
X0057102Y0045291D02*
X0079740Y0045291D01*
X0079740Y0055134D02*
X0057102Y0055134D01*
X0056118Y0065961D02*
X0079740Y0065961D01*
X0079740Y0075803D02*
X0057102Y0075803D01*
X0057102Y0085646D02*
X0079740Y0085646D01*
X0079740Y0095488D02*
X0056118Y0095488D01*
X0048244Y0095488D02*
X0048244Y0107299D01*
X0086630Y0107299D01*
X0094504Y0099425D01*
X0094504Y0024622D01*
X0126984Y0024622D01*
X0134858Y0040370D02*
X0099425Y0040370D01*
X0099425Y0103362D01*
X0086630Y0115173D01*
X0036433Y0115173D01*
X0036433Y0083677D01*
X0048244Y0083677D01*
X0046276Y0056118D02*
X0016748Y0056118D01*
X0095488Y0138795D02*
X0119110Y0115173D01*
X0119110Y0103362D01*
X0134858Y0103362D02*
X0134858Y0123047D01*
X0119110Y0138795D01*
X0119110Y0150606D01*
X0109268Y0150606D02*
X0095488Y0150606D01*
X0108283Y0159465D02*
X0109268Y0158480D01*
X0109268Y0150606D01*
D17*
X0080724Y0151591D02*
X0079740Y0151591D01*
X0098441Y0196866D02*
X0098441Y0198835D01*
D18*
X0095488Y0150606D03*
X0095488Y0138795D03*
M02*
