G75*
%MOIN*%
%OFA0B0*%
%FSLAX25Y25*%
%IPPOS*%
%LPD*%
%AMOC8*
5,1,8,0,0,1.08239X$1,22.5*
%
%ADD10OC8,0.06000*%
%ADD11C,0.06000*%
%ADD12C,0.06400*%
%ADD13OC8,0.06400*%
%ADD14C,0.08200*%
%ADD15C,0.07800*%
%ADD16R,0.04762X0.04762*%
D10*
X0108913Y0150252D03*
X0118913Y0150252D03*
X0070882Y0198441D03*
X0070882Y0208441D03*
D11*
X0068282Y0181315D02*
X0073482Y0181315D01*
X0073482Y0171315D02*
X0068282Y0171315D01*
D12*
X0095488Y0150606D03*
X0095488Y0138795D03*
X0056945Y0095567D03*
D13*
X0046945Y0015567D03*
X0046945Y0025567D03*
X0046945Y0035567D03*
X0046945Y0045567D03*
X0046945Y0055567D03*
X0046945Y0065567D03*
X0046945Y0075567D03*
X0046945Y0085567D03*
X0046945Y0095567D03*
X0056945Y0085567D03*
X0056945Y0075567D03*
X0056945Y0065567D03*
X0056945Y0055567D03*
X0056945Y0045567D03*
X0056945Y0035567D03*
X0056945Y0025567D03*
X0056945Y0015567D03*
D14*
X0120843Y0072260D03*
X0126866Y0053815D03*
X0135094Y0072575D03*
X0135094Y0102575D03*
X0120843Y0102260D03*
X0126866Y0023815D03*
D15*
X0086508Y0025567D02*
X0079508Y0025567D01*
X0079508Y0035567D02*
X0086508Y0035567D01*
X0086508Y0045567D02*
X0079508Y0045567D01*
X0079508Y0055567D02*
X0086508Y0055567D01*
X0086508Y0065567D02*
X0079508Y0065567D01*
X0079508Y0075567D02*
X0086508Y0075567D01*
X0086508Y0085567D02*
X0079508Y0085567D01*
X0079508Y0095567D02*
X0086508Y0095567D01*
D16*
X0095488Y0138795D03*
X0095488Y0150606D03*
M02*
