%
M48
M72
T01C0.02362
T02C0.03150
T03C0.03200
T04C0.03543
T05C0.03600
%
T01
X95488Y138795
X95488Y138795
X95488Y150606
X95488Y150606
T02
X83008Y95567
X83008Y85567
X83008Y75567
X83008Y65567
X83008Y55567
X83008Y45567
X83008Y35567
X83008Y25567
T03
X108913Y150252
X118913Y150252
X70882Y171315
X70882Y181315
X70882Y198441
X70882Y208441
T04
X120843Y102260
X135094Y102575
X135094Y72575
X126866Y53815
X120843Y72260
X126866Y23815
T05
X46945Y15567
X46945Y25567
X46945Y35567
X46945Y45567
X46945Y55567
X46945Y65567
X46945Y75567
X46945Y85567
X46945Y95567
X56945Y95567
X56945Y85567
X56945Y75567
X56945Y65567
X56945Y55567
X56945Y45567
X56945Y35567
X56945Y25567
X56945Y15567
M30
