G75*
%MOIN*%
%OFA0B0*%
%FSLAX25Y25*%
%IPPOS*%
%LPD*%
%AMOC8*
5,1,8,0,0,1.08239X$1,22.5*
%
%ADD10C,0.00000*%
%ADD11C,0.00400*%
%ADD12R,0.00787X0.00787*%
%ADD13R,0.00984X0.00591*%
%ADD14C,0.00600*%
%ADD15C,0.00200*%
%ADD16C,0.00500*%
%ADD17C,0.00800*%
D10*
X0001000Y0001000D02*
X0001000Y0233283D01*
X0158480Y0233283D01*
X0158480Y0001000D01*
X0001000Y0001000D01*
D11*
X0078008Y0144071D02*
X0077931Y0144144D01*
X0077856Y0144219D01*
X0077785Y0144297D01*
X0077716Y0144378D01*
X0077650Y0144461D01*
X0077587Y0144546D01*
X0077528Y0144634D01*
X0077471Y0144723D01*
X0077418Y0144815D01*
X0077368Y0144909D01*
X0077322Y0145004D01*
X0077279Y0145101D01*
X0077240Y0145199D01*
X0077204Y0145299D01*
X0077172Y0145400D01*
X0077144Y0145502D01*
X0077119Y0145605D01*
X0077098Y0145709D01*
X0077081Y0145814D01*
X0077067Y0145919D01*
X0077058Y0146024D01*
X0077052Y0146130D01*
X0077050Y0146236D01*
X0077052Y0146342D01*
X0077058Y0146448D01*
X0077067Y0146553D01*
X0077081Y0146658D01*
X0077098Y0146763D01*
X0077119Y0146867D01*
X0077144Y0146970D01*
X0077172Y0147072D01*
X0077204Y0147173D01*
X0077240Y0147273D01*
X0077279Y0147371D01*
X0077322Y0147468D01*
X0077368Y0147563D01*
X0077418Y0147657D01*
X0077471Y0147749D01*
X0077528Y0147838D01*
X0077587Y0147926D01*
X0077650Y0148011D01*
X0077716Y0148094D01*
X0077785Y0148175D01*
X0077856Y0148253D01*
X0077931Y0148328D01*
X0078008Y0148401D01*
X0081944Y0148401D02*
X0082021Y0148328D01*
X0082096Y0148253D01*
X0082167Y0148175D01*
X0082236Y0148094D01*
X0082302Y0148011D01*
X0082365Y0147926D01*
X0082424Y0147838D01*
X0082481Y0147749D01*
X0082534Y0147657D01*
X0082584Y0147563D01*
X0082630Y0147468D01*
X0082673Y0147371D01*
X0082712Y0147273D01*
X0082748Y0147173D01*
X0082780Y0147072D01*
X0082808Y0146970D01*
X0082833Y0146867D01*
X0082854Y0146763D01*
X0082871Y0146658D01*
X0082885Y0146553D01*
X0082894Y0146448D01*
X0082900Y0146342D01*
X0082902Y0146236D01*
X0082900Y0146130D01*
X0082894Y0146024D01*
X0082885Y0145919D01*
X0082871Y0145814D01*
X0082854Y0145709D01*
X0082833Y0145605D01*
X0082808Y0145502D01*
X0082780Y0145400D01*
X0082748Y0145299D01*
X0082712Y0145199D01*
X0082673Y0145101D01*
X0082630Y0145004D01*
X0082584Y0144909D01*
X0082534Y0144815D01*
X0082481Y0144723D01*
X0082424Y0144634D01*
X0082365Y0144546D01*
X0082302Y0144461D01*
X0082236Y0144378D01*
X0082167Y0144297D01*
X0082096Y0144219D01*
X0082021Y0144144D01*
X0081944Y0144071D01*
D12*
X0079976Y0146236D03*
D13*
X0082240Y0148303D03*
D14*
X0076882Y0168315D02*
X0076882Y0183815D01*
X0064382Y0183815D01*
X0070882Y0186315D02*
X0071120Y0186312D01*
X0071358Y0186304D01*
X0071596Y0186289D01*
X0071834Y0186270D01*
X0072071Y0186244D01*
X0072307Y0186213D01*
X0072543Y0186176D01*
X0072777Y0186134D01*
X0073011Y0186086D01*
X0073243Y0186032D01*
X0073474Y0185973D01*
X0073703Y0185909D01*
X0073931Y0185839D01*
X0074157Y0185763D01*
X0074381Y0185683D01*
X0074604Y0185597D01*
X0074824Y0185505D01*
X0075042Y0185409D01*
X0075257Y0185307D01*
X0075470Y0185200D01*
X0075681Y0185088D01*
X0075888Y0184972D01*
X0076093Y0184850D01*
X0076295Y0184723D01*
X0076494Y0184592D01*
X0076690Y0184456D01*
X0076882Y0184315D01*
X0076882Y0183815D01*
X0070882Y0186315D02*
X0070638Y0186312D01*
X0070395Y0186303D01*
X0070152Y0186288D01*
X0069909Y0186268D01*
X0069667Y0186241D01*
X0069426Y0186208D01*
X0069186Y0186170D01*
X0068946Y0186126D01*
X0068708Y0186076D01*
X0068471Y0186020D01*
X0068235Y0185958D01*
X0068001Y0185891D01*
X0067769Y0185818D01*
X0067538Y0185739D01*
X0067310Y0185655D01*
X0067083Y0185565D01*
X0066859Y0185470D01*
X0066637Y0185369D01*
X0066418Y0185263D01*
X0066202Y0185152D01*
X0065988Y0185035D01*
X0065777Y0184914D01*
X0065569Y0184787D01*
X0065364Y0184655D01*
X0065163Y0184518D01*
X0064965Y0184376D01*
X0064770Y0184230D01*
X0064579Y0184079D01*
X0064392Y0183923D01*
X0064209Y0183763D01*
X0064029Y0183598D01*
X0063854Y0183429D01*
X0063683Y0183256D01*
X0063516Y0183078D01*
X0063354Y0182897D01*
X0063196Y0182712D01*
X0063042Y0182523D01*
X0062893Y0182330D01*
X0062749Y0182134D01*
X0062610Y0181934D01*
X0062475Y0181731D01*
X0062346Y0181524D01*
X0062222Y0181315D01*
X0062103Y0181103D01*
X0061989Y0180887D01*
X0061880Y0180670D01*
X0061777Y0180449D01*
X0061679Y0180226D01*
X0061586Y0180001D01*
X0061499Y0179773D01*
X0061418Y0179544D01*
X0061342Y0179312D01*
X0061272Y0179079D01*
X0061207Y0178844D01*
X0061148Y0178608D01*
X0061095Y0178370D01*
X0061048Y0178131D01*
X0061007Y0177891D01*
X0060972Y0177650D01*
X0060942Y0177409D01*
X0060918Y0177166D01*
X0060901Y0176923D01*
X0060889Y0176680D01*
X0060883Y0176437D01*
X0060883Y0176193D01*
X0060889Y0175950D01*
X0060901Y0175707D01*
X0060918Y0175464D01*
X0060942Y0175221D01*
X0060972Y0174980D01*
X0061007Y0174739D01*
X0061048Y0174499D01*
X0061095Y0174260D01*
X0061148Y0174022D01*
X0061207Y0173786D01*
X0061272Y0173551D01*
X0061342Y0173318D01*
X0061418Y0173086D01*
X0061499Y0172857D01*
X0061586Y0172629D01*
X0061679Y0172404D01*
X0061777Y0172181D01*
X0061880Y0171960D01*
X0061989Y0171743D01*
X0062103Y0171527D01*
X0062222Y0171315D01*
X0062346Y0171106D01*
X0062475Y0170899D01*
X0062610Y0170696D01*
X0062749Y0170496D01*
X0062893Y0170300D01*
X0063042Y0170107D01*
X0063196Y0169918D01*
X0063354Y0169733D01*
X0063516Y0169552D01*
X0063683Y0169374D01*
X0063854Y0169201D01*
X0064029Y0169032D01*
X0064209Y0168867D01*
X0064392Y0168707D01*
X0064579Y0168551D01*
X0064770Y0168400D01*
X0064965Y0168254D01*
X0065163Y0168112D01*
X0065364Y0167975D01*
X0065569Y0167843D01*
X0065777Y0167716D01*
X0065988Y0167595D01*
X0066202Y0167478D01*
X0066418Y0167367D01*
X0066637Y0167261D01*
X0066859Y0167160D01*
X0067083Y0167065D01*
X0067310Y0166975D01*
X0067538Y0166891D01*
X0067769Y0166812D01*
X0068001Y0166739D01*
X0068235Y0166672D01*
X0068471Y0166610D01*
X0068708Y0166554D01*
X0068946Y0166504D01*
X0069186Y0166460D01*
X0069426Y0166422D01*
X0069667Y0166389D01*
X0069909Y0166362D01*
X0070152Y0166342D01*
X0070395Y0166327D01*
X0070638Y0166318D01*
X0070882Y0166315D01*
X0071120Y0166318D01*
X0071358Y0166326D01*
X0071596Y0166341D01*
X0071834Y0166360D01*
X0072071Y0166386D01*
X0072307Y0166417D01*
X0072543Y0166454D01*
X0072777Y0166496D01*
X0073011Y0166544D01*
X0073243Y0166598D01*
X0073474Y0166657D01*
X0073703Y0166721D01*
X0073931Y0166791D01*
X0074157Y0166867D01*
X0074381Y0166947D01*
X0074604Y0167033D01*
X0074824Y0167125D01*
X0075042Y0167221D01*
X0075257Y0167323D01*
X0075470Y0167430D01*
X0075681Y0167542D01*
X0075888Y0167658D01*
X0076093Y0167780D01*
X0076295Y0167907D01*
X0076494Y0168038D01*
X0076690Y0168174D01*
X0076882Y0168315D01*
X0074382Y0194441D02*
X0067382Y0194441D01*
X0067382Y0196441D01*
X0067382Y0200441D02*
X0067382Y0206441D01*
X0067382Y0210441D02*
X0067382Y0212441D01*
X0074382Y0212441D01*
X0074382Y0210441D01*
X0074382Y0206441D02*
X0074382Y0200941D01*
X0074382Y0196441D02*
X0074382Y0194441D01*
X0067382Y0200441D02*
X0067274Y0200443D01*
X0067166Y0200449D01*
X0067058Y0200459D01*
X0066950Y0200472D01*
X0066843Y0200490D01*
X0066737Y0200511D01*
X0066632Y0200536D01*
X0066527Y0200565D01*
X0066424Y0200598D01*
X0066322Y0200634D01*
X0066221Y0200675D01*
X0066122Y0200718D01*
X0066025Y0200766D01*
X0065929Y0200816D01*
X0065835Y0200870D01*
X0065744Y0200928D01*
X0065654Y0200989D01*
X0065566Y0201053D01*
X0065481Y0201120D01*
X0065399Y0201190D01*
X0065319Y0201263D01*
X0065242Y0201339D01*
X0065167Y0201418D01*
X0065096Y0201499D01*
X0065027Y0201583D01*
X0064961Y0201669D01*
X0064899Y0201757D01*
X0064840Y0201848D01*
X0064784Y0201941D01*
X0064731Y0202036D01*
X0064682Y0202132D01*
X0064637Y0202231D01*
X0064595Y0202331D01*
X0064557Y0202432D01*
X0064522Y0202535D01*
X0064491Y0202638D01*
X0064464Y0202743D01*
X0064441Y0202849D01*
X0064422Y0202956D01*
X0064406Y0203063D01*
X0064394Y0203171D01*
X0064386Y0203279D01*
X0064382Y0203387D01*
X0064382Y0203495D01*
X0064386Y0203603D01*
X0064394Y0203711D01*
X0064406Y0203819D01*
X0064422Y0203926D01*
X0064441Y0204033D01*
X0064464Y0204139D01*
X0064491Y0204244D01*
X0064522Y0204347D01*
X0064557Y0204450D01*
X0064595Y0204551D01*
X0064637Y0204651D01*
X0064682Y0204750D01*
X0064731Y0204846D01*
X0064784Y0204941D01*
X0064840Y0205034D01*
X0064899Y0205125D01*
X0064961Y0205213D01*
X0065027Y0205299D01*
X0065096Y0205383D01*
X0065167Y0205464D01*
X0065242Y0205543D01*
X0065319Y0205619D01*
X0065399Y0205692D01*
X0065481Y0205762D01*
X0065566Y0205829D01*
X0065654Y0205893D01*
X0065744Y0205954D01*
X0065835Y0206012D01*
X0065929Y0206066D01*
X0066025Y0206116D01*
X0066122Y0206164D01*
X0066221Y0206207D01*
X0066322Y0206248D01*
X0066424Y0206284D01*
X0066527Y0206317D01*
X0066632Y0206346D01*
X0066737Y0206371D01*
X0066843Y0206392D01*
X0066950Y0206410D01*
X0067058Y0206423D01*
X0067166Y0206433D01*
X0067274Y0206439D01*
X0067382Y0206441D01*
X0104913Y0153752D02*
X0104913Y0146752D01*
X0106913Y0146752D01*
X0110913Y0146752D02*
X0116913Y0146752D01*
X0116911Y0146644D01*
X0116905Y0146536D01*
X0116895Y0146428D01*
X0116882Y0146320D01*
X0116864Y0146213D01*
X0116843Y0146107D01*
X0116818Y0146002D01*
X0116789Y0145897D01*
X0116756Y0145794D01*
X0116720Y0145692D01*
X0116679Y0145591D01*
X0116636Y0145492D01*
X0116588Y0145395D01*
X0116538Y0145299D01*
X0116484Y0145205D01*
X0116426Y0145114D01*
X0116365Y0145024D01*
X0116301Y0144936D01*
X0116234Y0144851D01*
X0116164Y0144769D01*
X0116091Y0144689D01*
X0116015Y0144612D01*
X0115936Y0144537D01*
X0115855Y0144466D01*
X0115771Y0144397D01*
X0115685Y0144331D01*
X0115597Y0144269D01*
X0115506Y0144210D01*
X0115413Y0144154D01*
X0115318Y0144101D01*
X0115222Y0144052D01*
X0115123Y0144007D01*
X0115023Y0143965D01*
X0114922Y0143927D01*
X0114819Y0143892D01*
X0114716Y0143861D01*
X0114611Y0143834D01*
X0114505Y0143811D01*
X0114398Y0143792D01*
X0114291Y0143776D01*
X0114183Y0143764D01*
X0114075Y0143756D01*
X0113967Y0143752D01*
X0113859Y0143752D01*
X0113751Y0143756D01*
X0113643Y0143764D01*
X0113535Y0143776D01*
X0113428Y0143792D01*
X0113321Y0143811D01*
X0113215Y0143834D01*
X0113110Y0143861D01*
X0113007Y0143892D01*
X0112904Y0143927D01*
X0112803Y0143965D01*
X0112703Y0144007D01*
X0112604Y0144052D01*
X0112508Y0144101D01*
X0112413Y0144154D01*
X0112320Y0144210D01*
X0112229Y0144269D01*
X0112141Y0144331D01*
X0112055Y0144397D01*
X0111971Y0144466D01*
X0111890Y0144537D01*
X0111811Y0144612D01*
X0111735Y0144689D01*
X0111662Y0144769D01*
X0111592Y0144851D01*
X0111525Y0144936D01*
X0111461Y0145024D01*
X0111400Y0145114D01*
X0111342Y0145205D01*
X0111288Y0145299D01*
X0111238Y0145395D01*
X0111190Y0145492D01*
X0111147Y0145591D01*
X0111106Y0145692D01*
X0111070Y0145794D01*
X0111037Y0145897D01*
X0111008Y0146002D01*
X0110983Y0146107D01*
X0110962Y0146213D01*
X0110944Y0146320D01*
X0110931Y0146428D01*
X0110921Y0146536D01*
X0110915Y0146644D01*
X0110913Y0146752D01*
X0110913Y0153752D02*
X0116413Y0153752D01*
X0120913Y0153752D02*
X0122913Y0153752D01*
X0122913Y0146752D01*
X0120913Y0146752D01*
X0106913Y0153752D02*
X0104913Y0153752D01*
X0063945Y0098067D02*
X0063945Y0013067D01*
X0063943Y0012969D01*
X0063937Y0012871D01*
X0063928Y0012773D01*
X0063914Y0012676D01*
X0063897Y0012579D01*
X0063876Y0012483D01*
X0063851Y0012388D01*
X0063823Y0012294D01*
X0063790Y0012202D01*
X0063755Y0012110D01*
X0063715Y0012020D01*
X0063673Y0011932D01*
X0063626Y0011845D01*
X0063577Y0011761D01*
X0063524Y0011678D01*
X0063468Y0011598D01*
X0063408Y0011519D01*
X0063346Y0011443D01*
X0063281Y0011370D01*
X0063213Y0011299D01*
X0063142Y0011231D01*
X0063069Y0011166D01*
X0062993Y0011104D01*
X0062914Y0011044D01*
X0062834Y0010988D01*
X0062751Y0010935D01*
X0062667Y0010886D01*
X0062580Y0010839D01*
X0062492Y0010797D01*
X0062402Y0010757D01*
X0062310Y0010722D01*
X0062218Y0010689D01*
X0062124Y0010661D01*
X0062029Y0010636D01*
X0061933Y0010615D01*
X0061836Y0010598D01*
X0061739Y0010584D01*
X0061641Y0010575D01*
X0061543Y0010569D01*
X0061445Y0010567D01*
X0042445Y0010567D01*
X0042347Y0010569D01*
X0042249Y0010575D01*
X0042151Y0010584D01*
X0042054Y0010598D01*
X0041957Y0010615D01*
X0041861Y0010636D01*
X0041766Y0010661D01*
X0041672Y0010689D01*
X0041580Y0010722D01*
X0041488Y0010757D01*
X0041398Y0010797D01*
X0041310Y0010839D01*
X0041223Y0010886D01*
X0041139Y0010935D01*
X0041056Y0010988D01*
X0040976Y0011044D01*
X0040897Y0011104D01*
X0040821Y0011166D01*
X0040748Y0011231D01*
X0040677Y0011299D01*
X0040609Y0011370D01*
X0040544Y0011443D01*
X0040482Y0011519D01*
X0040422Y0011598D01*
X0040366Y0011678D01*
X0040313Y0011761D01*
X0040264Y0011845D01*
X0040217Y0011932D01*
X0040175Y0012020D01*
X0040135Y0012110D01*
X0040100Y0012202D01*
X0040067Y0012294D01*
X0040039Y0012388D01*
X0040014Y0012483D01*
X0039993Y0012579D01*
X0039976Y0012676D01*
X0039962Y0012773D01*
X0039953Y0012871D01*
X0039947Y0012969D01*
X0039945Y0013067D01*
X0039945Y0098067D01*
X0039947Y0098165D01*
X0039953Y0098263D01*
X0039962Y0098361D01*
X0039976Y0098458D01*
X0039993Y0098555D01*
X0040014Y0098651D01*
X0040039Y0098746D01*
X0040067Y0098840D01*
X0040100Y0098932D01*
X0040135Y0099024D01*
X0040175Y0099114D01*
X0040217Y0099202D01*
X0040264Y0099289D01*
X0040313Y0099373D01*
X0040366Y0099456D01*
X0040422Y0099536D01*
X0040482Y0099615D01*
X0040544Y0099691D01*
X0040609Y0099764D01*
X0040677Y0099835D01*
X0040748Y0099903D01*
X0040821Y0099968D01*
X0040897Y0100030D01*
X0040976Y0100090D01*
X0041056Y0100146D01*
X0041139Y0100199D01*
X0041223Y0100248D01*
X0041310Y0100295D01*
X0041398Y0100337D01*
X0041488Y0100377D01*
X0041580Y0100412D01*
X0041672Y0100445D01*
X0041766Y0100473D01*
X0041861Y0100498D01*
X0041957Y0100519D01*
X0042054Y0100536D01*
X0042151Y0100550D01*
X0042249Y0100559D01*
X0042347Y0100565D01*
X0042445Y0100567D01*
X0061445Y0100567D01*
X0061543Y0100565D01*
X0061641Y0100559D01*
X0061739Y0100550D01*
X0061836Y0100536D01*
X0061933Y0100519D01*
X0062029Y0100498D01*
X0062124Y0100473D01*
X0062218Y0100445D01*
X0062310Y0100412D01*
X0062402Y0100377D01*
X0062492Y0100337D01*
X0062580Y0100295D01*
X0062667Y0100248D01*
X0062751Y0100199D01*
X0062834Y0100146D01*
X0062914Y0100090D01*
X0062993Y0100030D01*
X0063069Y0099968D01*
X0063142Y0099903D01*
X0063213Y0099835D01*
X0063281Y0099764D01*
X0063346Y0099691D01*
X0063408Y0099615D01*
X0063468Y0099536D01*
X0063524Y0099456D01*
X0063577Y0099373D01*
X0063626Y0099289D01*
X0063673Y0099202D01*
X0063715Y0099114D01*
X0063755Y0099024D01*
X0063790Y0098932D01*
X0063823Y0098840D01*
X0063851Y0098746D01*
X0063876Y0098651D01*
X0063897Y0098555D01*
X0063914Y0098458D01*
X0063928Y0098361D01*
X0063937Y0098263D01*
X0063943Y0098165D01*
X0063945Y0098067D01*
D15*
X0111913Y0145752D02*
X0115913Y0145752D01*
X0114913Y0144752D02*
X0112913Y0144752D01*
X0066382Y0201441D02*
X0066382Y0205441D01*
X0065382Y0204441D02*
X0065382Y0202441D01*
D16*
X0065738Y0217002D02*
X0064988Y0217753D01*
X0065738Y0217002D02*
X0067240Y0217002D01*
X0067990Y0217753D01*
X0067990Y0218503D01*
X0067240Y0219254D01*
X0066489Y0219254D01*
X0067240Y0219254D02*
X0067990Y0220005D01*
X0067990Y0220755D01*
X0067240Y0221506D01*
X0065738Y0221506D01*
X0064988Y0220755D01*
X0063386Y0220755D02*
X0062636Y0221506D01*
X0061134Y0221506D01*
X0060384Y0220755D01*
X0060384Y0220005D01*
X0061134Y0219254D01*
X0063386Y0219254D01*
X0063386Y0217753D02*
X0063386Y0220755D01*
X0063386Y0217753D02*
X0062636Y0217002D01*
X0061134Y0217002D01*
X0060384Y0217753D01*
X0069592Y0217753D02*
X0070342Y0217002D01*
X0071844Y0217002D01*
X0072594Y0217753D01*
X0072594Y0219254D01*
X0071844Y0220005D01*
X0071093Y0220005D01*
X0069592Y0219254D01*
X0069592Y0221506D01*
X0072594Y0221506D01*
X0074196Y0221506D02*
X0077198Y0217002D01*
X0077198Y0221506D01*
X0078800Y0221506D02*
X0080301Y0220005D01*
X0081802Y0221506D01*
X0081802Y0217002D01*
X0078800Y0217002D02*
X0078800Y0221506D01*
X0074196Y0221506D02*
X0074196Y0217002D01*
X0127345Y0188731D02*
X0131848Y0188731D01*
X0131848Y0185729D02*
X0127345Y0185729D01*
X0128846Y0187230D01*
X0127345Y0188731D01*
X0127345Y0184127D02*
X0131848Y0184127D01*
X0127345Y0181125D01*
X0131848Y0181125D01*
X0131098Y0179523D02*
X0131848Y0178773D01*
X0131848Y0177271D01*
X0131098Y0176521D01*
X0128095Y0179523D01*
X0131098Y0179523D01*
X0131098Y0176521D02*
X0128095Y0176521D01*
X0127345Y0177271D01*
X0127345Y0178773D01*
X0128095Y0179523D01*
X0127345Y0174919D02*
X0127345Y0171917D01*
X0129597Y0171917D01*
X0128846Y0173418D01*
X0128846Y0174169D01*
X0129597Y0174919D01*
X0131098Y0174919D01*
X0131848Y0174169D01*
X0131848Y0172668D01*
X0131098Y0171917D01*
X0131098Y0170316D02*
X0128095Y0170316D01*
X0127345Y0169565D01*
X0127345Y0168064D01*
X0128095Y0167313D01*
X0128846Y0167313D01*
X0129597Y0168064D01*
X0129597Y0170316D01*
X0131098Y0170316D02*
X0131848Y0169565D01*
X0131848Y0168064D01*
X0131098Y0167313D01*
X0135508Y0103067D02*
X0135508Y0020567D01*
X0073008Y0020567D01*
X0073008Y0103067D01*
X0135508Y0103067D01*
X0070195Y0095716D02*
X0070195Y0092713D01*
X0070195Y0094214D02*
X0065691Y0094214D01*
X0067192Y0092713D01*
X0037444Y0017716D02*
X0038195Y0016965D01*
X0038195Y0015464D01*
X0037444Y0014713D01*
X0036694Y0014713D01*
X0035943Y0015464D01*
X0035943Y0016965D01*
X0036694Y0017716D01*
X0037444Y0017716D01*
X0035943Y0016965D02*
X0035192Y0017716D01*
X0034442Y0017716D01*
X0033691Y0016965D01*
X0033691Y0015464D01*
X0034442Y0014713D01*
X0035192Y0014713D01*
X0035943Y0015464D01*
X0038195Y0013112D02*
X0038195Y0010109D01*
X0038195Y0011610D02*
X0033691Y0011610D01*
X0035192Y0010109D01*
D17*
X0117843Y0077260D02*
X0117843Y0097260D01*
X0120843Y0097260D01*
X0120843Y0098260D01*
X0120843Y0097260D02*
X0123843Y0097260D01*
X0123843Y0077260D01*
X0120843Y0077260D01*
X0120843Y0076260D01*
X0120843Y0077260D02*
X0117843Y0077260D01*
X0132094Y0077575D02*
X0132094Y0097575D01*
X0135094Y0097575D01*
X0135094Y0098575D01*
X0135094Y0097575D02*
X0138094Y0097575D01*
X0138094Y0077575D01*
X0135094Y0077575D01*
X0135094Y0076575D01*
X0135094Y0077575D02*
X0132094Y0077575D01*
X0126866Y0049815D02*
X0126866Y0048815D01*
X0129866Y0048815D01*
X0129866Y0028815D01*
X0126866Y0028815D01*
X0126866Y0027815D01*
X0126866Y0028815D02*
X0123866Y0028815D01*
X0123866Y0048815D01*
X0126866Y0048815D01*
M02*
